Flexion_states
version=1
nRows=8
nColumns=41
inDegrees=yes

# SIMM Motion File Header:
name Flexion_states
datacolumns 41
datarows 8
otherdata 1
range 0.00000000 1.11798142
endheader
time	/jointset/ground_thorax/thorax_tilt/value	/jointset/ground_thorax/thorax_tilt/speed	/jointset/ground_thorax/thorax_list/value	/jointset/ground_thorax/thorax_list/speed	/jointset/ground_thorax/thorax_rotation/value	/jointset/ground_thorax/thorax_rotation/speed	/jointset/ground_thorax/thorax_tx/value	/jointset/ground_thorax/thorax_tx/speed	/jointset/ground_thorax/thorax_ty/value	/jointset/ground_thorax/thorax_ty/speed	/jointset/ground_thorax/thorax_tz/value	/jointset/ground_thorax/thorax_tz/speed	/jointset/sternoclavicular/sternoclavicular_r2/value	/jointset/sternoclavicular/sternoclavicular_r2/speed	/jointset/sternoclavicular/sternoclavicular_r3/value	/jointset/sternoclavicular/sternoclavicular_r3/speed	/jointset/unrotscap/unrotscap_r3/value	/jointset/unrotscap/unrotscap_r3/speed	/jointset/unrotscap/unrotscap_r2/value	/jointset/unrotscap/unrotscap_r2/speed	/jointset/acromioclavicular/acromioclavicular_r2/value	/jointset/acromioclavicular/acromioclavicular_r2/speed	/jointset/acromioclavicular/acromioclavicular_r3/value	/jointset/acromioclavicular/acromioclavicular_r3/speed	/jointset/acromioclavicular/acromioclavicular_r1/value	/jointset/acromioclavicular/acromioclavicular_r1/speed	/jointset/unrothum/unrothum_r1/value	/jointset/unrothum/unrothum_r1/speed	/jointset/unrothum/unrothum_r3/value	/jointset/unrothum/unrothum_r3/speed	/jointset/unrothum/unrothum_r2/value	/jointset/unrothum/unrothum_r2/speed	/jointset/shoulder0/elv_angle/value	/jointset/shoulder0/elv_angle/speed	/jointset/shoulder1/shoulder_elv/value	/jointset/shoulder1/shoulder_elv/speed	/jointset/shoulder1/shoulder1_r2/value	/jointset/shoulder1/shoulder1_r2/speed	/jointset/shoulder2/shoulder_rot/value	/jointset/shoulder2/shoulder_rot/speed
      0.00000000	      0.00000000	      0.00000000	      0.00000000	      0.00000000	      0.00000000	      0.00000000	      0.00000000	      0.00000000	      0.00000000	      0.00000000	      0.00000000	      0.00000000	      0.00000000	      0.00000000	     -0.00000000	      0.00000000	      0.00000000	      0.00000000	     -0.00000000	      0.00000000	      0.00000000	      0.00000000	     -0.00000000	      0.00000000	     -0.00000000	      0.00000000	      0.00000000	      0.00000000	      0.00000000	      0.00000000	     -0.00000000	      0.00000000	     90.00000000	      0.00000000	     -0.00000000	      0.00000000	    -90.00000000	      0.00000000	      0.00000000	      0.00000000
      0.01000000	      0.00000000	      0.00000000	      0.00000000	      0.00000000	      0.00000000	      0.00000000	      0.00000000	      0.00000000	      0.00000000	      0.00000000	     -0.00000000	     -0.00000000	     -0.00065555	     -0.13108835	      0.00027766	      0.05552279	     -0.00027766	     -0.05552279	      0.00065555	      0.13108835	     -0.00013273	     -0.02654252	      0.00107269	      0.21450445	      0.00048218	      0.09642044	     -0.00048218	     -0.09642044	     -0.00107269	     -0.21450445	      0.00013273	      0.02654252	     90.00000000	     -0.00000000	      0.00270889	      0.54169253	    -90.00000000	     -0.00000000	     -0.00000000	     -0.00000000
      0.06000000	      0.00000000	      0.00000000	     -0.00000000	     -0.00000000	     -0.00000000	     -0.00000000	      0.00000000	      0.00000000	     -0.00000000	     -0.00000000	     -0.00000000	     -0.00000000	     -0.02356236	     -0.78466609	      0.00997990	      0.33234726	     -0.00997990	     -0.33234726	      0.02356236	      0.78466609	     -0.00477086	     -0.15887770	      0.03855592	      1.28397654	      0.01733101	      0.57715160	     -0.01733101	     -0.57715160	     -0.03855592	     -1.28397654	      0.00477086	      0.15887770	     90.00000000	     -0.00000000	      0.09736606	      3.24245257	    -90.00000000	     -0.00000000	     -0.00000000	     -0.00000000
      0.31000000	      0.00000000	      0.00000000	     -0.00000000	     -0.00000000	      0.00000000	      0.00000000	     -0.00000000	     -0.00000000	     -0.00000000	      0.00000000	      0.00000000	      0.00000000	     -0.62397942	     -4.00553743	      0.26428802	      1.69655527	     -0.26428802	     -1.69655527	      0.62397942	      4.00553743	     -0.12634217	     -0.81103361	      1.02103932	      6.55440084	      0.45896047	      2.94622436	     -0.45896047	     -2.94622436	     -1.02103932	     -6.55440084	      0.12634217	      0.81103361	     90.00000000	      0.00000000	      2.57845176	     16.55196430	    -90.00000000	      0.00000000	      0.00000000	      0.00000000
      0.78744861	      0.00000000	      0.00000000	     -0.00000000	     -0.00000000	      0.00000000	     -0.00000000	      0.00000000	      0.00000000	     -0.00000000	     -0.00000000	      0.00000000	      0.00000000	     -3.96319980	     -9.93143063	      1.67862306	      4.20648196	     -1.67862306	     -4.20648196	      3.96319980	      9.93143063	     -0.80246116	     -2.01089720	      6.48512231	     16.25114693	      2.91508343	      7.30494306	     -2.91508343	     -7.30494306	     -6.48512231	    -16.25114693	      0.80246116	      2.01089720	     90.00000000	      0.00000000	     16.37701379	     41.03935821	    -90.00000000	     -0.00000000	      0.00000000	      0.00000000
      0.89580171	      0.00000000	      0.00000000	     -0.00000000	     -0.00000000	      0.00000000	     -0.00000000	      0.00000000	      0.00000000	     -0.00000000	     -0.00000000	      0.00000000	      0.00000000	     -5.10995081	    -11.23268138	      2.16433228	      4.75762993	     -2.16433228	     -4.75762993	      5.10995081	     11.23268138	     -1.03465313	     -2.27437198	      8.36159105	     18.38042899	      3.75856220	      8.26206223	     -3.75856220	     -8.26206223	     -8.36159105	    -18.38042899	      1.03465313	      2.27437198	     90.00000000	      0.00000000	     21.11569920	     46.41647835	    -90.00000000	     -0.00000000	      0.00000000	      0.00000000
      1.02183084	      0.00000000	      0.00000000	     -0.00000000	     -0.00000000	     -0.00000000	     -0.00000000	      0.00000000	      0.00000000	     -0.00000000	     -0.00000000	      0.00000000	      0.00000000	     -6.61985514	    -12.72454885	      2.80385599	      5.38951408	     -2.80385599	     -5.38951408	      6.61985514	     12.72454885	     -1.34037569	     -2.57644247	     10.83230025	     20.82162385	      4.86915397	      9.35938720	     -4.86915397	     -9.35938720	    -10.83230025	    -20.82162385	      1.34037569	      2.57644247	     90.00000000	      0.00000000	     27.35503237	     52.58127832	    -90.00000000	     -0.00000000	      0.00000000	      0.00000000
      1.11798142	      0.00000000	      0.00000000	     -0.00000000	     -0.00000000	     -0.00000000	     -0.00000000	      0.00000000	      0.00000000	     -0.00000000	     -0.00000000	      0.00000000	      0.00000000	     -7.89737167	    -13.84615765	      3.34495127	      5.86457426	     -3.34495127	     -5.86457426	      7.89737167	     13.84615765	     -1.59904481	     -2.80354369	     12.92274518	     22.65695151	      5.80881572	     10.18437292	     -5.80881572	    -10.18437292	    -12.92274518	    -22.65695151	      1.59904481	      2.80354369	     90.00000000	      0.00000000	     32.63407629	     57.21606932	    -90.00000000	     -0.00000000	      0.00000000	      0.00000000
